<svg width="620" height="160" viewBox="0 0 620 160" fill="none" xmlns="http://www.w3.org/2000/svg" role="img" aria-labelledby="title desc">
  <title id="title">Specter logo reversed</title>
  <desc id="desc">Specter logo for dark backgrounds.</desc>
  <rect width="620" height="160" rx="24" fill="#0D1B2A"/>
  <g transform="translate(24 16)">
    <path d="M64 8L112 36V62.5H92V48.3L64 32.1L36 48.3V62.5H16V36L64 8Z" fill="white"/>
    <path d="M112 65.5V92L64 120L16 92V65.5H36V79.7L64 95.9L92 79.7V65.5H112Z" fill="#14B8A6"/>
    <path d="M36 48.3L64 32.1L92 48.3V65.5H72.2V59.8L64 55.1L55.8 59.8L92 80.7L64 96.9L36 80.7V62.5H55.8V68.9L64 73.6L72.2 68.9L36 48.3Z" fill="#0D1B2A"/>
  </g>
  <text x="178" y="103" fill="white" font-family="Inter, ui-sans-serif, system-ui, -apple-system, BlinkMacSystemFont, 'Segoe UI', sans-serif" font-size="82" font-weight="740" letter-spacing="-3.2">Specter</text>
</svg>
