<?xml version="1.0" encoding="UTF-8"?>
<!-- Generator: visioncortex VTracer 0.6.12 -->
<svg version="1.1" xmlns="http://www.w3.org/2000/svg" width="1092" height="277">
<path d="M0,0 L11,6 L43,25 L67,40 L93,56 L95,58 L95,105 L85,111 L53,128 L35,138 L10,152 L-8,162 L-13,161 L-29,152 L-54,137 L-71,127 L-100,110 L-105,106 L-105,56 L-101,57 L-87,65 L-65,78 L-40,93 L-13,109 L-9,110 L20,94 L41,82 L45,80 L27,69 L5,56 L0,53 L-1,44 L-1,1 Z " fill="#163145" transform="translate(121,100)"/>
<path d="M0,0 L5,1 L29,15 L53,29 L79,44 L96,54 L97,56 L97,106 L95,107 L72,94 L43,77 L19,63 L3,54 L-2,55 L-30,70 L-49,81 L-55,85 L-32,99 L-22,105 L-21,107 L-21,159 L-23,160 L-48,146 L-72,132 L-98,117 L-103,114 L-103,60 L-94,54 L-68,39 L-47,27 L-19,11 Z " fill="#142F43" transform="translate(119,14)"/>
<path d="M0,0 L29,0 L44,4 L60,12 L71,22 L77,32 L76,35 L58,43 L55,43 L49,35 L41,29 L32,25 L23,23 L5,23 L-8,27 L-14,31 L-18,38 L-18,49 L-14,55 L-4,60 L13,64 L41,70 L57,76 L67,83 L75,92 L79,101 L79,121 L74,133 L67,141 L60,147 L48,153 L32,157 L22,158 L12,158 L-5,156 L-18,152 L-31,145 L-41,136 L-48,127 L-51,121 L-50,118 L-30,109 L-26,114 L-20,122 L-10,129 L1,133 L13,135 L22,135 L37,132 L46,127 L51,121 L53,115 L52,106 L48,100 L42,96 L25,91 L-5,85 L-20,80 L-31,74 L-39,66 L-44,56 L-45,52 L-45,36 L-41,25 L-34,16 L-27,10 L-13,3 Z " fill="#183246" transform="translate(329,61)"/>
<path d="M0,0 L20,0 L33,4 L44,11 L52,19 L60,33 L63,42 L64,50 L64,63 L61,77 L54,91 L45,101 L35,108 L25,112 L20,113 L-2,113 L-14,109 L-25,102 L-27,100 L-28,155 L-29,156 L-51,156 L-52,155 L-52,3 L-51,2 L-28,2 L-27,14 L-19,7 L-8,2 Z M0,21 L-10,24 L-18,30 L-24,38 L-28,51 L-28,61 L-25,73 L-19,82 L-12,88 L-1,92 L13,92 L24,88 L33,80 L38,70 L40,63 L40,50 L37,40 L31,31 L24,25 L13,21 Z " fill="#183347" transform="translate(482,105)"/>
<path d="M0,0 L22,0 L35,4 L45,10 L53,17 L60,28 L64,38 L66,46 L66,64 L65,65 L-21,65 L-18,75 L-12,84 L-3,90 L4,92 L21,92 L31,89 L40,82 L42,79 L47,80 L62,88 L61,92 L54,100 L44,107 L30,112 L25,113 L0,113 L-13,109 L-24,103 L-35,92 L-41,82 L-45,70 L-46,65 L-46,48 L-43,35 L-36,22 L-27,12 L-16,5 L-5,1 Z M5,20 L-5,23 L-11,27 L-18,35 L-22,46 L-22,47 L42,47 L41,40 L37,32 L28,24 L21,21 L16,20 Z " fill="#1A3548" transform="translate(927,105)"/>
<path d="M0,0 L23,0 L38,5 L48,12 L56,20 L62,31 L66,43 L67,50 L67,64 L66,65 L-20,65 L-16,78 L-8,87 L0,91 L4,92 L22,92 L33,88 L41,81 L42,79 L47,80 L62,88 L61,93 L52,102 L42,108 L30,112 L25,113 L1,113 L-13,109 L-22,104 L-32,95 L-39,85 L-44,72 L-45,67 L-45,46 L-41,32 L-34,20 L-25,11 L-15,5 L-4,1 Z M6,20 L-4,23 L-10,27 L-17,35 L-20,42 L-20,47 L43,47 L41,38 L35,29 L27,23 L17,20 Z " fill="#1A3548" transform="translate(604,105)"/>
<path d="M0,0 L22,0 L36,4 L46,10 L56,19 L61,27 L61,31 L43,38 L40,38 L34,30 L25,24 L17,22 L5,22 L-5,25 L-13,31 L-19,40 L-22,50 L-22,63 L-19,73 L-13,82 L-5,88 L4,91 L18,91 L29,87 L37,80 L42,75 L61,82 L62,84 L55,95 L48,102 L36,109 L22,113 L0,113 L-14,109 L-26,102 L-35,93 L-43,79 L-46,69 L-47,62 L-47,50 L-44,36 L-38,24 L-27,12 L-16,5 L-5,1 Z " fill="#183347" transform="translate(730,105)"/>
<path d="M0,0 L23,0 L23,34 L54,34 L54,55 L23,55 L24,108 L26,117 L30,121 L42,123 L53,122 L54,123 L54,143 L40,145 L26,144 L16,141 L7,134 L2,126 L0,119 L-1,110 L-1,56 L-21,55 L-22,54 L-22,35 L-21,34 L-1,34 L-1,1 Z " fill="#1B3549" transform="translate(820,73)"/>
<path d="M0,0 L13,0 L17,1 L17,23 L-3,23 L-14,27 L-19,31 L-24,40 L-26,52 L-27,111 L-50,111 L-50,2 L-27,2 L-26,14 L-19,7 L-9,2 Z " fill="#153044" transform="translate(1060,105)"/>
</svg>
